# xmcd
#
# Track frame offsets:
# 150
# 12748
# 24589
# 41151
# 56657
# 74813
# 91784
# 102859
# 122899
# 138203
# 154700
# 168349
# 187758
#
# Disc length: 2760 seconds
#
#
# Revision: 5
# Processed by: cddbd v1.5.2PL0 Copyright (c) Steve Scherf et al.
# Submitted via: FreeRIP 2.931 
#
DISCID=ae0ac60d
DTITLE=TinkaBelle - Highway
DYEAR=2011
DGENRE=Country
TTITLE0=The Man I Need
TTITLE1=Hold On
TTITLE2=Mandy Lane
TTITLE3=Get Up
TTITLE4=Highway ft. PeeWirz
TTITLE5=I Don't Know
TTITLE6=Love Aint Paying Bills
TTITLE7=Amsterdam
TTITLE8=Brad New Car
TTITLE9=The Day
TTITLE10=How Did You Know
TTITLE11=Everything
TTITLE12=You Get Me ft. Seal
EXTD=
EXTT0=
EXTT1=
EXTT2=
EXTT3=
EXTT4=
EXTT5=
EXTT6=
EXTT7=
EXTT8=
EXTT9=
EXTT10=
EXTT11=
EXTT12=
PLAYORDER=
